<svg xmlns="http://www.w3.org/2000/svg" viewBox="0 0 613.97 280.02"><defs><style>.cls-1{fill:#fff;}</style></defs><g id="Layer_2" data-name="Layer 2"><g id="Layer_1-2" data-name="Layer 1"><path class="cls-1" d="M312,94.83c-2.85,21.32-3,42.62-2.71,63.78-11.41-19.09-17.24-40.37-15.82-62.88l-3.45.16a1.15,1.15,0,0,1-1.25-1l-6.65.33a.94.94,0,0,1-1-1.13l5.55-16.44a1.34,1.34,0,0,1,1.37-1l3.51.37a1.65,1.65,0,0,1,1.56-1l3.41.16C302,53.68,314.42,32.4,331.72,13.31c-6.85,21.16-13.24,42.46-17,63.78l4.86,2,46.44-2.28a1.5,1.5,0,0,0,1.44-1.15h0c2.92-16.83,6.62-35.6,10.2-52.28a2.53,2.53,0,0,0-.54-2.25q-6.57-8-13-16.18a2.88,2.88,0,0,0-2.28-1.08q-40-2-79.93-3.85a3.88,3.88,0,0,0-2.61.91q-10.1,7.86-20.12,15.93a4.09,4.09,0,0,0-1.52,2.37,1404.5,1404.5,0,0,0-21.43,140.48,3,3,0,0,0,.78,2.39q7.49,8,15.06,15.87c.55.57,2.31.4,2.31.4h77.08a7.73,7.73,0,0,0,2.6-1c6-5.7,15.31-15.09,21.39-20.65.75-.69,1.18-3.08,1.27-3.94q2-17.75,4.41-35.41l.6-4.31c.78-5.46,1.76-11.42,2.65-17a1.92,1.92,0,0,0-1.91-2.21l-45-.78Z"/><path class="cls-1" d="M43.57,271.67c-17.23,0-31.28-12.29-31.28-32.37,0-16.57,9.55-30.4,26.78-30.4,9.44,0,18.77,3.73,19,14.92H62l3.29-16.9c-5.82-.54-15.91-2.74-24.69-2.74C15.36,204.18,0,222.29,0,243c0,21.62,16.9,37,38.52,37,19.75,0,28.32-13.5,28.32-13.5L65.19,264A34.4,34.4,0,0,1,43.57,271.67Z"/><path class="cls-1" d="M273.89,267.83l-15.8-23.48V242.7c5.49-3.07,14.05-9.77,14.05-19.53,0-9.33-7.47-17.67-27-17.67H217.26v3c8.13,1.65,8.67,2.74,8.67,8v52c0,3.73-2.86,6.48-7.47,7-3.73-.55-5.59-2-8-8.34L186.2,204.73l-5.49,1.21-25.79,64.31a7.53,7.53,0,0,1-5.79,4.8l-9.38-1a32.37,32.37,0,0,0,.55-5.93V219c0-9.11,3.62-13.39,3.62-13.39l-.55-.44s-2.85.33-14.49.33h-8.34v3c7.91,1.65,7.91,2.74,7.91,8v21.18l-1.21,1.21H89.05V219c0-9.11,3.62-13.5,3.62-13.5l-.55-.44s-2.85.44-14.49.44H69.4v3c7.8,1.65,7.8,2.74,7.8,8v51.69c0,3.95-2.86,6.59-7.58,7.14V279l28.1-.66.44-3.29-9.66-1a32.37,32.37,0,0,0,.55-5.93V245.23l1.2-1.1h38.2v24.36c0,3.73-3,6.26-7.69,6.81V279L149,278.7h19.45l.55-3.4-9.33-1.21,7-18.33,1.54-1.1h24.91l6,16.14c1.21,3.29-1.43,4.17-4.5,4.28V279l23.86-.12v0l28.31-.65.29-3.23-9.87-1a28,28,0,0,0,.55-5.6V248l1.2-1.21h6.59l13.06,19.54a60,60,0,0,1,6.58,12.07l.44.33h18.22l.44-3.73-1.21-.11C280.59,274.64,278.5,274.42,273.89,267.83ZM169,249.51l11.52-30.08c.55,2,1.65,5.16,2.42,7.47l8.34,22.61Zm77.6-7.58h-8.78V211.64l1.2-1.2h3.52c12.07,0,16.57,7.24,16.57,15.8C259.08,236.67,252.38,241.93,246.57,241.93Z"/><path class="cls-1" d="M319.61,273.76H304.74a34.28,34.28,0,0,0,.55-6V219c0-9.11,3.62-13.5,3.62-13.5l-.55-.44s-3.07.44-14.48.44h-8.34v3c7.9,1.65,7.9,2.74,7.9,8v52c0,3.95-2.53,6.26-7.36,6.81V279s10.54-.33,16.91-.33h32.76l4.61-20.41h-3.95C330.92,270,328.83,273.76,319.61,273.76Z"/><path class="cls-1" d="M381.07,204.18c-26.67,0-40.71,19.43-40.71,39,0,19.32,13.82,36.88,37.64,36.88,25.46,0,40.93-20.2,40.93-40.5C418.93,220.53,405.44,204.18,381.07,204.18Zm-.66,71c-17.23,0-26.88-18.66-26.88-35,0-15.92,9-31.17,25.35-31.17,17.45,0,26.78,17,26.78,33.36C405.66,258.51,396.66,275.19,380.41,275.19Z"/><path class="cls-1" d="M430.31,205.5a35.86,35.86,0,0,1-7.35-.66l-3.4,19h3.95c4.28-11.19,7.57-13.38,14.93-13.38h7.84v57.72c0,3.95-2.85,6.59-7.57,7.14V279l29.41-.66.44-3.29-11-1a32.37,32.37,0,0,0,.55-5.93V211.64l1.2-1.2H467c8.34,0,12,2.19,11.64,13.38h4.06l3.4-19a46,46,0,0,1-7.9.66Z"/><path class="cls-1" d="M498,205.5a35.86,35.86,0,0,1-7.35-.66l-3.41,19h4c4.27-11.19,7.57-13.38,14.92-13.38H514v57.72c0,3.95-2.85,6.59-7.57,7.14V279l29.41-.66.44-3.29-11-1a32.37,32.37,0,0,0,.55-5.93V211.64l1.21-1.2h7.63c8.34,0,12,2.19,11.63,13.38h4.06l3.41-19a46.15,46.15,0,0,1-7.91.66Z"/><path class="cls-1" d="M610,260.48c-5.49,11.52-6.8,13.28-16.24,13.28H577.32a36.42,36.42,0,0,0,.55-6.15V245.12l1.2-1.21h18.11v8.23h5.38V232.06l-4.28.65-.88,6.37H577.87V211.64l1.2-1.2h13.5c8.78,0,12.4,2.08,11.85,13.38h4l3.4-18.76a75,75,0,0,1-8.12.44H557.34v3c8.12,1.65,8.67,2.74,8.67,8v52c0,3.95-2.85,6.26-7.57,6.81V279s10.76-.33,17.12-.33h34.35L614,260.48Z"/></g></g></svg>