<svg xmlns="http://www.w3.org/2000/svg" viewBox="0 0 269.87 81.87"><defs><style>.cls-1{fill:#fff;}</style></defs><g id="Layer_2" data-name="Layer 2"><g id="Layer_1-2" data-name="Layer 1"><path class="cls-1" d="M20.54,42.46a116.57,116.57,0,0,0-.73,17.29,29.35,29.35,0,0,1-4.29-17l-.93,0a.31.31,0,0,1-.34-.26l-1.81.09a.25.25,0,0,1-.27-.31l1.5-4.45a.36.36,0,0,1,.37-.28l1,.1a.45.45,0,0,1,.43-.27l.92,0a39.84,39.84,0,0,1,9.54-17,128.25,128.25,0,0,0-4.59,17.28l1.31.55,12.59-.62a.42.42,0,0,0,.39-.31h0c.79-4.56,1.79-9.65,2.76-14.17a.68.68,0,0,0-.15-.61C37,21,35.83,19.57,34.66,18.1a.78.78,0,0,0-.61-.29q-10.83-.54-21.67-1a1,1,0,0,0-.7.25q-2.75,2.13-5.46,4.32a1.1,1.1,0,0,0-.41.64A380.48,380.48,0,0,0,0,60a.77.77,0,0,0,.21.65q2,2.18,4.08,4.3c.15.15.62.11.62.11H25.81a2.1,2.1,0,0,0,.71-.29c1.63-1.54,4.15-4.09,5.79-5.59a2.34,2.34,0,0,0,.35-1.07q.53-4.82,1.19-9.6c.06-.39.11-.78.17-1.17.21-1.48.47-3.09.72-4.6a.53.53,0,0,0-.52-.6L22,42Z"/><polygon class="cls-1" points="58.1 0 45.14 81.87 46.53 81.87 59.49 0 58.1 0"/><path class="cls-1" d="M79.34,50.16c-5.75,0-10.45-4.1-10.45-10.81,0-5.54,3.19-10.15,9-10.15,3.15,0,6.27,1.24,6.34,5H85.5l1.1-5.64a76.41,76.41,0,0,0-8.25-.92c-8.43,0-13.56,6.05-13.56,13C64.79,47.82,70.43,53,77.66,53a11.29,11.29,0,0,0,9.45-4.51l-.55-.84A11.49,11.49,0,0,1,79.34,50.16Z"/><path class="cls-1" d="M156.27,48.88,151,41v-.55c1.83-1,4.69-3.27,4.69-6.53s-2.5-5.9-9-5.9h-9.31v1c2.71.55,2.89.92,2.89,2.67V49.1c0,1.25-.95,2.16-2.49,2.35-1.25-.19-1.87-.66-2.68-2.79L127,27.8l-1.83.41-8.61,21.48a2.52,2.52,0,0,1-1.94,1.6L111.47,51a11,11,0,0,0,.18-2V32.57a7.2,7.2,0,0,1,1.21-4.47l-.18-.15s-1,.11-4.84.11h-2.79v1c2.64.55,2.64.92,2.64,2.67V38.8l-.4.4H94.53V32.57a7.4,7.4,0,0,1,1.21-4.51l-.18-.15a41.39,41.39,0,0,1-4.84.15H88v1c2.6.55,2.6.92,2.6,2.67V49c0,1.32-.95,2.2-2.53,2.38v1.25l9.39-.22.14-1.1L94.35,51a11,11,0,0,0,.18-2V41.33l.41-.37h12.75V49.1c0,1.25-1,2.09-2.56,2.27v1.25l9.42-.11H121l.19-1.14-3.12-.4,2.35-6.12.51-.37h8.32l2,5.39c.4,1.1-.48,1.39-1.51,1.43v1.32l8,0v0l9.46-.22.1-1.08L144,51a9.56,9.56,0,0,0,.18-1.87V42.25l.41-.41h2.2l4.36,6.53a20.65,20.65,0,0,1,2.2,4l.14.11h6.09l.15-1.25-.41,0C158.51,51.15,157.81,51.08,156.27,48.88Zm-35-6.12,3.85-10c.18.66.55,1.73.8,2.5l2.79,7.55Zm25.92-2.53h-2.94V30.11l.41-.4h1.17c4,0,5.54,2.42,5.54,5.28C151.33,38.47,149.09,40.23,147.15,40.23Z"/><path class="cls-1" d="M171.55,50.86h-5a11.76,11.76,0,0,0,.18-2V32.57A7.4,7.4,0,0,1,168,28.06l-.18-.15a43.23,43.23,0,0,1-4.84.15h-2.79v1c2.64.55,2.64.92,2.64,2.67V49.1c0,1.32-.84,2.09-2.45,2.27v1.25s3.52-.11,5.64-.11h10.94l1.54-6.82h-1.32C175.32,49.61,174.62,50.86,171.55,50.86Z"/><path class="cls-1" d="M192.07,27.62c-8.9,0-13.6,6.49-13.6,13S183.09,53,191.05,53a13.42,13.42,0,0,0,13.67-13.53C204.72,33.08,200.21,27.62,192.07,27.62Zm-.22,23.72c-5.75,0-9-6.23-9-11.7,0-5.31,3-10.41,8.47-10.41,5.83,0,8.94,5.68,8.94,11.15S197.28,51.34,191.85,51.34Z"/><path class="cls-1" d="M208.52,28.06a12.12,12.12,0,0,1-2.46-.22l-1.13,6.34h1.32c1.43-3.74,2.53-4.47,5-4.47h2.63V49c0,1.32-1,2.2-2.53,2.38v1.25l9.82-.22.15-1.1L217.63,51a11,11,0,0,0,.18-2V30.11l.41-.4h2.55c2.78,0,4,.73,3.88,4.47H226l1.13-6.34a15.25,15.25,0,0,1-2.63.22Z"/><path class="cls-1" d="M231.14,28.06a12,12,0,0,1-2.46-.22l-1.14,6.34h1.32c1.43-3.74,2.53-4.47,5-4.47h2.62V49c0,1.32-.95,2.2-2.53,2.38v1.25l9.83-.22.14-1.1L240.25,51a11,11,0,0,0,.18-2V30.11l.4-.4h2.55c2.79,0,4,.73,3.89,4.47h1.35l1.14-6.34a15.45,15.45,0,0,1-2.64.22Z"/><path class="cls-1" d="M268.55,46.42c-1.84,3.85-2.28,4.44-5.43,4.44h-5.5a11.73,11.73,0,0,0,.19-2V41.29l.4-.4h6.05v2.75h1.79V36.93l-1.43.22-.29,2.13h-6.52V30.11l.4-.4h4.51c2.93,0,4.14.7,4,4.47H268l1.13-6.27a24.57,24.57,0,0,1-2.71.15H251v1c2.71.55,2.9.92,2.9,2.67V49.1c0,1.32-1,2.09-2.53,2.27v1.25s3.59-.11,5.72-.11h11.47l1.36-6.09Z"/></g></g></svg>